<svg width="570" height="358" viewBox="0 0 570 358" fill="none" xmlns="http://www.w3.org/2000/svg">
<path d="M61.7112 164.442H38.3739V141.104H31.4114V164.442H7.94517V171.791H31.4114V194.999H38.3739V171.791H61.7112V164.442ZM105.705 119.314L71.7953 177.464V185.716H117.052V209.698H126.722V185.716H140.905V176.175H126.722V152.064H117.052V176.175H82.7548L115.891 119.314H105.705ZM185.927 119.056C164.395 119.056 152.404 135.302 152.404 164.442C152.404 193.71 164.395 209.956 185.927 209.956C207.331 209.956 219.321 193.71 219.321 164.442C219.321 135.302 207.331 119.056 185.927 119.056ZM185.927 127.566C201.013 127.566 209.007 139.815 209.007 164.442C209.007 189.068 201.013 201.575 185.927 201.575C170.584 201.575 162.719 189.068 162.719 164.442C162.719 139.815 170.584 127.566 185.927 127.566ZM265.505 119.056C243.972 119.056 231.981 135.302 231.981 164.442C231.981 193.71 243.972 209.956 265.505 209.956C286.908 209.956 298.899 193.71 298.899 164.442C298.899 135.302 286.908 119.056 265.505 119.056ZM265.505 127.566C280.59 127.566 288.584 139.815 288.584 164.442C288.584 189.068 280.59 201.575 265.505 201.575C250.161 201.575 242.296 189.068 242.296 164.442C242.296 139.815 250.161 127.566 265.505 127.566ZM318.134 197.836C314.653 197.836 312.074 200.544 312.074 204.283C312.074 206.475 312.977 208.538 314.911 209.569L310.656 218.852H316.329L322.389 209.698C323.55 208.022 324.323 206.346 324.323 204.283C324.323 200.286 321.487 197.836 318.134 197.836ZM370.516 119.056C348.984 119.056 336.993 135.302 336.993 164.442C336.993 193.71 348.984 209.956 370.516 209.956C391.92 209.956 403.911 193.71 403.911 164.442C403.911 135.302 391.92 119.056 370.516 119.056ZM370.516 127.566C385.602 127.566 393.596 139.815 393.596 164.442C393.596 189.068 385.602 201.575 370.516 201.575C355.173 201.575 347.308 189.068 347.308 164.442C347.308 139.815 355.173 127.566 370.516 127.566ZM450.094 119.056C428.561 119.056 416.57 135.302 416.57 164.442C416.57 193.71 428.561 209.956 450.094 209.956C471.497 209.956 483.488 193.71 483.488 164.442C483.488 135.302 471.497 119.056 450.094 119.056ZM450.094 127.566C465.179 127.566 473.173 139.815 473.173 164.442C473.173 189.068 465.179 201.575 450.094 201.575C434.75 201.575 426.885 189.068 426.885 164.442C426.885 139.815 434.75 127.566 450.094 127.566ZM529.671 119.056C508.139 119.056 496.148 135.302 496.148 164.442C496.148 193.71 508.139 209.956 529.671 209.956C551.074 209.956 563.065 193.71 563.065 164.442C563.065 135.302 551.074 119.056 529.671 119.056ZM529.671 127.566C544.756 127.566 552.75 139.815 552.75 164.442C552.75 189.068 544.756 201.575 529.671 201.575C514.327 201.575 506.462 189.068 506.462 164.442C506.462 139.815 514.327 127.566 529.671 127.566Z" fill="black"/>
<path d="M354.387 249.843L357.027 244.563C353.155 242.011 347.787 240.339 342.243 240.339C333.795 240.339 326.139 244.123 326.139 252.923C326.051 269.291 352.011 263.571 351.747 274.835C351.659 279.499 347.259 281.611 341.803 281.611C336.347 281.611 330.363 279.411 326.403 275.715L323.763 280.731C328.163 284.955 334.939 287.243 341.539 287.243C350.427 287.243 358.523 283.195 358.523 274.131C358.523 257.499 332.651 262.867 332.651 252.395C332.651 247.995 336.611 246.147 341.803 246.147C346.115 246.147 350.779 247.555 354.387 249.843ZM388.63 240.427C374.814 240.427 365.134 250.019 365.134 263.747C365.134 277.563 374.814 287.243 388.63 287.243C402.358 287.243 412.126 277.563 412.126 263.747C412.126 250.019 402.358 240.427 388.63 240.427ZM388.63 246.499C398.31 246.499 405.262 253.627 405.262 263.835C405.262 274.219 398.31 281.259 388.63 281.259C378.862 281.259 371.998 274.219 371.998 263.835C371.998 253.627 378.862 246.499 388.63 246.499ZM449.013 240.427C440.565 240.515 434.317 243.859 431.061 250.899V240.691H424.197V286.979H431.061V262.163C431.853 253.187 437.485 247.115 446.637 247.027C454.821 247.027 459.749 251.955 459.749 260.227V286.979H466.613V258.467C466.613 247.203 460.101 240.427 449.013 240.427ZM515.475 240.691V250.107C512.131 243.947 506.147 240.339 498.227 240.427C485.819 240.515 477.283 249.579 477.283 262.603C477.283 275.715 485.907 284.955 498.403 284.955C506.235 284.955 512.219 281.435 515.475 275.275V282.315C515.475 292.083 508.875 298.331 498.755 298.331C492.595 298.243 487.755 296.219 483.179 292.435L480.011 297.451C485.643 301.763 491.715 304.139 499.019 304.227C513.099 304.227 522.339 295.691 522.339 282.139V240.691H515.475ZM499.635 279.323C490.307 279.323 483.795 272.371 483.707 262.779C483.795 253.099 490.307 246.147 499.635 246.147C508.875 246.147 515.475 253.099 515.475 262.779C515.475 272.371 508.875 279.323 499.635 279.323ZM562.356 249.843L564.996 244.563C561.124 242.011 555.756 240.339 550.212 240.339C541.764 240.339 534.108 244.123 534.108 252.923C534.02 269.291 559.98 263.571 559.716 274.835C559.628 279.499 555.228 281.611 549.772 281.611C544.316 281.611 538.332 279.411 534.372 275.715L531.732 280.731C536.132 284.955 542.908 287.243 549.508 287.243C558.396 287.243 566.492 283.195 566.492 274.131C566.492 257.499 540.62 262.867 540.62 252.395C540.62 247.995 544.58 246.147 549.772 246.147C554.084 246.147 558.748 247.555 562.356 249.843Z" fill="black"/>
<path d="M368.775 70.2102C364.944 70.2497 362.1 71.7505 360.678 74.9891V61.7977H357.597V91.1033H360.678V80.9135C360.678 76.3715 363.285 73.2118 367.708 73.1723C371.381 73.1723 373.593 75.3841 373.593 79.0967V91.1033H376.674V78.3068C376.674 73.2513 373.751 70.2102 368.775 70.2102ZM399.467 91.1033L399.427 77.3589C399.388 72.9354 396.544 70.2102 391.41 70.2102C387.855 70.2102 385.604 71.2371 382.918 73.0144L384.222 75.1866C386.394 73.6463 388.527 72.7774 390.817 72.7774C394.49 72.7774 396.386 74.6337 396.386 77.6748V78.9782H389.554C384.656 79.0177 381.773 81.3084 381.773 84.942C381.773 88.4966 384.538 91.2218 388.843 91.2218C392.16 91.2218 394.806 90.1159 396.465 87.8646V91.1033H399.467ZM389.435 88.6546C386.512 88.6546 384.656 87.1142 384.656 84.8235C384.656 82.4933 386.473 81.4269 389.948 81.4269H396.426V83.9546C395.636 86.9168 392.95 88.6546 389.435 88.6546ZM417.325 74.4362L418.51 72.0665C416.772 70.9211 414.363 70.1707 411.874 70.1707C408.083 70.1707 404.647 71.869 404.647 75.8185C404.607 83.1647 416.258 80.5975 416.14 85.6529C416.1 87.7462 414.126 88.6941 411.677 88.6941C409.228 88.6941 406.542 87.7067 404.765 86.0479L403.58 88.2991C405.555 90.1949 408.596 91.2218 411.558 91.2218C415.547 91.2218 419.181 89.405 419.181 85.3369C419.181 77.8723 407.569 80.2815 407.569 75.5816C407.569 73.6068 409.347 72.7774 411.677 72.7774C413.612 72.7774 415.705 73.4093 417.325 74.4362ZM447.457 70.2102C443.626 70.2497 440.782 71.7505 439.36 74.9891V61.7977H436.28V91.1033H439.36V80.9135C439.36 76.3715 441.967 73.2118 446.391 73.1723C450.064 73.1723 452.275 75.3841 452.275 79.0967V91.1033H455.356V78.3068C455.356 73.2513 452.433 70.2102 447.457 70.2102ZM470.448 70.2102C464.405 70.2497 460.139 74.5152 460.139 80.716C460.139 86.9168 464.365 91.2218 470.487 91.2218C473.963 91.2218 476.885 89.9579 478.86 87.7857L477.162 86.0084C475.542 87.7067 473.291 88.6546 470.724 88.6546C466.656 88.6546 463.694 85.9689 463.18 81.8613H480.163C480.479 74.8312 477.162 70.2102 470.448 70.2102ZM463.18 79.4126C463.615 75.3841 466.459 72.7774 470.448 72.7774C474.516 72.7774 477.201 75.3841 477.399 79.4126H463.18ZM485.649 61.7977V91.1033H488.73V61.7977H485.649ZM507.74 70.2102C504.106 70.2102 501.262 71.9085 499.722 74.7917V70.3287H496.641V98.7654H499.722V86.6403C501.262 89.5235 504.106 91.2218 507.819 91.2218C513.703 91.2218 517.732 86.9168 517.732 80.7555C517.732 74.5547 513.624 70.2102 507.74 70.2102ZM507.187 88.4966C502.803 88.4966 499.722 85.2579 499.722 80.6765C499.722 76.1345 502.803 72.8564 507.187 72.8564C511.531 72.8564 514.612 76.174 514.612 80.6765C514.612 85.2185 511.531 88.4966 507.187 88.4966ZM531.349 70.2102C525.306 70.2497 521.041 74.5152 521.041 80.716C521.041 86.9168 525.267 91.2218 531.389 91.2218C534.864 91.2218 537.787 89.9579 539.762 87.7857L538.063 86.0084C536.444 87.7067 534.193 88.6546 531.626 88.6546C527.558 88.6546 524.595 85.9689 524.082 81.8613H541.065C541.381 74.8312 538.063 70.2102 531.349 70.2102ZM524.082 79.4126C524.516 75.3841 527.36 72.7774 531.349 72.7774C535.417 72.7774 538.103 75.3841 538.3 79.4126H524.082ZM562.388 61.7977V74.8312C560.848 71.869 557.965 70.1707 554.252 70.1707C548.367 70.1707 544.26 74.4757 544.26 80.6765C544.26 86.8773 548.367 91.2613 554.292 91.2613C558.004 91.2613 560.848 89.5629 562.388 86.6403V91.1033H565.469V61.7977H562.388ZM554.884 88.6151C550.461 88.6151 547.341 85.3369 547.341 80.7555C547.341 76.174 550.461 72.8564 554.884 72.8564C559.268 72.8564 562.388 76.174 562.388 80.7555C562.388 85.3369 559.268 88.6151 554.884 88.6151Z" fill="black"/>
<path d="M266.111 327.226V331.452C264.61 328.687 261.924 327.068 258.37 327.108C252.801 327.147 248.97 331.215 248.97 337.061C248.97 342.945 252.84 347.092 258.449 347.092C261.964 347.092 264.65 345.513 266.111 342.748V345.907C266.111 350.291 263.149 353.096 258.607 353.096C255.842 353.056 253.67 352.148 251.616 350.449L250.194 352.701C252.722 354.636 255.447 355.702 258.725 355.742C265.045 355.742 269.192 351.911 269.192 345.828V327.226H266.111ZM259.002 344.565C254.815 344.565 251.893 341.444 251.853 337.139C251.893 332.795 254.815 329.675 259.002 329.675C263.149 329.675 266.111 332.795 266.111 337.139C266.111 341.444 263.149 344.565 259.002 344.565ZM284.387 327.108C278.344 327.147 274.079 331.413 274.079 337.613C274.079 343.814 278.305 348.119 284.427 348.119C287.902 348.119 290.825 346.855 292.8 344.683L291.101 342.906C289.482 344.604 287.231 345.552 284.664 345.552C280.596 345.552 277.633 342.866 277.12 338.759H294.103C294.419 331.729 291.101 327.108 284.387 327.108ZM277.12 336.31C277.554 332.282 280.398 329.675 284.387 329.675C288.455 329.675 291.141 332.282 291.338 336.31H277.12ZM309.265 344.209C308.12 344.881 307.014 345.236 305.947 345.276C304.17 345.276 303.183 344.249 303.183 341.721V330.267H309.778V327.858H303.183V322.408H300.141V327.858H297.14V330.267H300.141V342.234C300.141 346.342 302.393 348.159 305.434 348.119C307.093 348.119 308.672 347.566 310.134 346.579L309.265 344.209ZM337.917 327.108C334.283 327.108 331.44 328.806 329.899 331.689V327.226H326.819V355.663H329.899V343.538C331.44 346.421 334.283 348.119 337.996 348.119C343.881 348.119 347.909 343.814 347.909 337.653C347.909 331.452 343.802 327.108 337.917 327.108ZM337.364 345.394C332.98 345.394 329.899 342.155 329.899 337.574C329.899 333.032 332.98 329.754 337.364 329.754C341.709 329.754 344.789 333.071 344.789 337.574C344.789 342.116 341.709 345.394 337.364 345.394ZM353.509 318.695V348.001H356.59V318.695H353.509ZM380.221 348.001L380.181 334.256C380.142 329.833 377.298 327.108 372.164 327.108C368.609 327.108 366.358 328.135 363.672 329.912L364.975 332.084C367.148 330.544 369.28 329.675 371.571 329.675C375.244 329.675 377.14 331.531 377.14 334.572V335.876H370.307C365.41 335.915 362.527 338.206 362.527 341.839C362.527 345.394 365.291 348.119 369.596 348.119C372.914 348.119 375.56 347.013 377.219 344.762V348.001H380.221ZM370.189 345.552C367.266 345.552 365.41 344.012 365.41 341.721C365.41 339.391 367.227 338.324 370.702 338.324H377.179V340.852C376.39 343.814 373.704 345.552 370.189 345.552ZM401.633 332.321L403.331 330.188C401.435 328.253 398.671 327.108 395.314 327.108C389.31 327.108 385.005 331.452 385.005 337.613C385.005 343.814 389.271 348.119 395.314 348.119C398.908 348.119 401.791 346.776 403.647 344.525L401.87 342.708C400.409 344.446 398.157 345.394 395.432 345.394C391.127 345.394 388.047 342.234 388.047 337.613C388.047 333.032 391.127 329.872 395.432 329.872C397.96 329.872 400.053 330.781 401.633 332.321ZM416.45 327.108C410.407 327.147 406.142 331.413 406.142 337.613C406.142 343.814 410.368 348.119 416.489 348.119C419.965 348.119 422.888 346.855 424.862 344.683L423.164 342.906C421.545 344.604 419.294 345.552 416.726 345.552C412.658 345.552 409.696 342.866 409.183 338.759H426.166C426.482 331.729 423.164 327.108 416.45 327.108ZM409.183 336.31C409.617 332.282 412.461 329.675 416.45 329.675C420.518 329.675 423.204 332.282 423.401 336.31H409.183ZM447.489 318.695V331.729C445.949 328.766 443.066 327.068 439.353 327.068C433.468 327.068 429.361 331.373 429.361 337.574C429.361 343.775 433.468 348.159 439.392 348.159C443.105 348.159 445.949 346.46 447.489 343.538V348.001H450.57V318.695H447.489ZM439.985 345.513C435.561 345.513 432.441 342.234 432.441 337.653C432.441 333.071 435.561 329.754 439.985 329.754C444.369 329.754 447.489 333.071 447.489 337.653C447.489 342.234 444.369 345.513 439.985 345.513ZM481.08 331.334L482.265 328.964C480.528 327.819 478.118 327.068 475.63 327.068C471.839 327.068 468.402 328.766 468.402 332.716C468.363 340.062 480.014 337.495 479.896 342.55C479.856 344.644 477.881 345.592 475.433 345.592C472.984 345.592 470.298 344.604 468.521 342.945L467.336 345.197C469.311 347.092 472.352 348.119 475.314 348.119C479.303 348.119 482.937 346.302 482.937 342.234C482.937 334.77 471.325 337.179 471.325 332.479C471.325 330.504 473.102 329.675 475.433 329.675C477.368 329.675 479.461 330.307 481.08 331.334ZM496.449 327.108C490.248 327.108 485.904 331.413 485.904 337.574C485.904 343.775 490.248 348.119 496.449 348.119C502.61 348.119 506.994 343.775 506.994 337.574C506.994 331.413 502.61 327.108 496.449 327.108ZM496.449 329.833C500.794 329.833 503.914 333.032 503.914 337.613C503.914 342.274 500.794 345.434 496.449 345.434C492.065 345.434 488.984 342.274 488.984 337.613C488.984 333.032 492.065 329.833 496.449 329.833ZM531.599 321.341C532.665 321.341 533.811 321.736 534.758 322.408L536.022 320.038C534.758 319.09 533.139 318.577 531.559 318.577C528.084 318.537 524.885 321.025 524.885 325.528V327.858H522.199V330.267H524.885V348.001H527.926V330.267H533.89V327.858H527.926V325.133C527.926 322.684 529.585 321.302 531.599 321.341ZM551.586 348.001L551.546 334.256C551.507 329.833 548.663 327.108 543.529 327.108C539.974 327.108 537.723 328.135 535.037 329.912L536.341 332.084C538.513 330.544 540.646 329.675 542.936 329.675C546.61 329.675 548.505 331.531 548.505 334.572V335.876H541.673C536.775 335.915 533.892 338.206 533.892 341.839C533.892 345.394 536.657 348.119 540.962 348.119C544.279 348.119 546.925 347.013 548.584 344.762V348.001H551.586ZM541.554 345.552C538.631 345.552 536.775 344.012 536.775 341.721C536.775 339.391 538.592 338.324 542.068 338.324H548.545V340.852C547.755 343.814 545.069 345.552 541.554 345.552ZM561.545 331.847V327.226H558.464V348.001H561.545V336.942C561.9 332.755 564.625 330.03 569.009 330.109V327.108C565.494 327.147 562.927 328.806 561.545 331.847Z" fill="black"/>
</svg>
